HIERARCHY
ROOT Hips
{
	OFFSET -1.602300 6.242603 43.997101
	CHANNELS 6 Xposition Yposition Zposition Zrotation Xrotation Yrotation
	JOINT Chest
	{
		OFFSET -0.204900 1.598101 7.917301
		CHANNELS 6 Xposition Yposition Zposition Zrotation Xrotation Yrotation
		JOINT Chest2
		{
			OFFSET 0.000000 0.000000 3.404099
			CHANNELS 6 Xposition Yposition Zposition Zrotation Xrotation Yrotation
			JOINT Neck
			{
				OFFSET 0.000000 0.000000 7.928600
				CHANNELS 6 Xposition Yposition Zposition Zrotation Xrotation Yrotation
				JOINT Head
				{
					OFFSET 0.000000 0.000000 2.173897
					CHANNELS 6 Xposition Yposition Zposition Zrotation Xrotation Yrotation
					End Site
					{
						OFFSET 0.000000 0.000001 10.404503
					}
				}
			}
			JOINT LeftCollar
			{
				OFFSET 2.833800 -1.396299 4.843300
				CHANNELS 6 Xposition Yposition Zposition Zrotation Xrotation Yrotation
				JOINT LeftShoulder
				{
					OFFSET 4.363600 0.000000 0.000000
					CHANNELS 6 Xposition Yposition Zposition Zrotation Xrotation Yrotation
					JOINT LeftElbow
					{
						OFFSET 0.000000 -0.000001 -10.306900
						CHANNELS 6 Xposition Yposition Zposition Zrotation Xrotation Yrotation
						JOINT LeftWrist
						{
							OFFSET 0.000000 -0.000001 -12.404900
							CHANNELS 6 Xposition Yposition Zposition Zrotation Xrotation Yrotation
							End Site
							{
								OFFSET 0.000000 0.000000 -2.173901
							}
						}
					}
				}
			}
			JOINT RightCollar
			{
				OFFSET -2.354800 -1.897200 5.063099
				CHANNELS 6 Xposition Yposition Zposition Zrotation Xrotation Yrotation
				JOINT RightShoulder
				{
					OFFSET -4.375800 0.000000 0.000000
					CHANNELS 6 Xposition Yposition Zposition Zrotation Xrotation Yrotation
					JOINT RightElbow
					{
						OFFSET 0.000000 -0.000001 -10.005001
						CHANNELS 6 Xposition Yposition Zposition Zrotation Xrotation Yrotation
						JOINT RightWrist
						{
							OFFSET 0.000000 -0.000001 -13.174900
							CHANNELS 6 Xposition Yposition Zposition Zrotation Xrotation Yrotation
							End Site
							{
								OFFSET 0.000000 0.000000 -2.173901
							}
						}
					}
				}
			}
		}
	}
	JOINT LeftHip
	{
		OFFSET 2.240600 0.386800 -2.614101
		CHANNELS 6 Xposition Yposition Zposition Zrotation Xrotation Yrotation
		JOINT LeftKnee
		{
			OFFSET 0.000000 -0.000001 -18.592899
			CHANNELS 6 Xposition Yposition Zposition Zrotation Xrotation Yrotation
			JOINT LeftAnkle
			{
				OFFSET 0.000000 -0.000001 -18.765800
				CHANNELS 6 Xposition Yposition Zposition Zrotation Xrotation Yrotation
				End Site
				{
					OFFSET 0.000000 -8.655000 0.000000
				}
			}
		}
	}
	JOINT RightHip
	{
		OFFSET -2.014900 -0.220900 -2.615898
		CHANNELS 6 Xposition Yposition Zposition Zrotation Xrotation Yrotation
		JOINT RightKnee
		{
			OFFSET 0.000000 -0.000001 -18.633900
			CHANNELS 6 Xposition Yposition Zposition Zrotation Xrotation Yrotation
			JOINT RightAnkle
			{
				OFFSET 0.000000 -0.000001 -18.285101
				CHANNELS 6 Xposition Yposition Zposition Zrotation Xrotation Yrotation
				End Site
				{
					OFFSET 0.000000 -7.524500 0.000000
				}
			}
		}
	}
}
MOTION
Frames: 4
Frame Time: 0.041667
-5.985000 27.102106 7.060806 3.060187 -3.809536 3.830610 -0.204900 1.598097 7.917305 -0.509748 40.371052 -0.700279 0.000000 0.000002 3.404103 0.792004 -11.800795 -0.851678 -0.000000 -0.000003 7.928599 -0.900084 16.948781 -3.368483 -0.000000 0.000004 2.173900 -0.936101 -0.407205 1.476011 2.833800 -1.396304 4.843299 2.076657 -0.474126 1.072643 4.363597 -0.000000 0.000004 -23.441925 0.750060 -23.942938 -0.000005 0.000005 -10.306900 616.954923 -147.813667 560.368937 0.000004 0.000004 -12.404895 42.761820 352.517292 -305.349208 -2.354801 -1.897202 5.063105 6.335657 -5.773442 -4.333009 -4.375795 0.000000 0.000004 3.695795 -1.281125 28.658337 0.000003 0.000010 -10.005000 -635.648932 -167.053737 -591.171014 -0.000007 0.000004 -13.174895 4.327811 -36.444540 319.594250 2.240600 0.386804 -2.614103 138.476908 -34.966071 107.077675 0.000000 -0.000003 -18.592896 -116.159688 37.534789 134.011112 -0.000002 0.000001 -18.765799 10.116870 34.006296 2.839283 -2.014894 -0.220896 -2.615898 -114.889506 -16.693749 -93.016146 0.000000 0.000004 -18.633886 172.961208 27.282009 -178.284111 -0.000006 -0.000005 -18.285084 -17.201259 32.997918 -205.184101
-5.985400 27.096605 7.062702 3.107641 -3.770714 3.766063 -0.204899 1.598099 7.917314 -0.602472 40.427446 -0.655524 -0.000000 0.000001 3.404109 0.944268 -11.787656 -0.825442 0.000001 -0.000003 7.928596 -2.190378 17.432779 -2.242374 0.000000 -0.000007 2.173896 -0.149837 0.069608 0.840184 2.833801 -1.396302 4.843302 2.153777 -0.495677 1.031313 4.363598 0.000000 0.000003 -24.107255 1.444350 -23.239473 -0.000005 0.000007 -10.306900 616.921701 -148.171282 560.548598 0.000008 0.000001 -12.404903 42.546147 352.214469 -305.020184 -2.354800 -1.897199 5.063102 6.323478 -5.876992 -4.291381 -4.375796 0.000000 0.000006 3.480774 -0.347210 28.061192 0.000002 0.000008 -10.004999 -633.912698 -166.827138 -590.073266 -0.000007 0.000004 -13.174896 3.470020 -36.746274 319.235119 2.240599 0.386802 -2.614097 138.409153 -34.915114 107.019536 0.000000 -0.000002 -18.592892 -116.110060 37.511177 133.991072 -0.000001 0.000000 -18.765797 10.160587 34.030700 2.717916 -2.014894 -0.220899 -2.615896 -114.969036 -16.660092 -93.078751 -0.000000 0.000005 -18.633884 173.026833 27.273905 -178.274125 -0.000005 -0.000008 -18.285084 -17.208527 33.002122 -205.173678
-5.984900 27.089903 7.064808 3.164800 -3.734105 3.694027 -0.204901 1.598098 7.917315 -0.710523 40.490324 -0.607951 -0.000001 0.000003 3.404102 1.093686 -11.762720 -0.799339 -0.000001 -0.000000 7.928599 -2.624229 17.895249 -1.978536 0.000001 -0.000001 2.173908 -0.212906 0.300731 0.835612 2.833800 -1.396300 4.843299 2.240832 -0.528701 1.007294 4.363596 0.000001 0.000007 -24.812373 2.153459 -22.530187 -0.000004 0.000005 -10.306897 617.022241 -148.491495 560.765525 0.000008 0.000004 -12.404896 42.332666 351.907411 -304.785608 -2.354801 -1.897197 5.063105 6.288371 -5.986796 -4.280816 -4.375797 0.000001 0.000005 3.705774 0.822857 27.544391 0.000003 0.000006 -10.004994 -632.731677 -166.744875 -589.127749 -0.000005 0.000005 -13.174901 2.771558 -37.121402 318.978877 2.240600 0.386804 -2.614098 138.324240 -34.873856 106.944998 0.000000 0.000000 -18.592892 -116.029601 37.473700 133.957304 -0.000001 0.000000 -18.765797 10.225804 34.060299 2.568303 -2.014895 -0.220894 -2.615893 -115.065588 -16.621742 -93.140947 -0.000000 0.000002 -18.633883 173.092908 27.263658 -178.256790 -0.000006 -0.000005 -18.285084 -17.223647 33.009560 -205.153625
-5.983699 27.082403 7.067410 3.227037 -3.699430 3.618655 -0.204900 1.598099 7.917311 -0.829385 40.545574 -0.542992 -0.000001 0.000005 3.404103 1.220571 -11.741829 -0.778237 -0.000000 -0.000005 7.928597 -3.056565 18.369618 -1.701979 -0.000001 -0.000002 2.173896 -0.286796 0.523505 0.872795 2.833800 -1.396302 4.843298 2.293153 -0.523523 0.936354 4.363595 -0.000002 0.000011 -25.403936 2.731483 -21.714679 -0.000005 0.000000 -10.306898 616.960278 -148.594044 560.787600 0.000006 0.000007 -12.404900 42.252018 351.658027 -304.639387 -2.354800 -1.897203 5.063105 6.311379 -6.025312 -4.276264 -4.375796 0.000003 0.000008 4.262026 2.158471 27.033650 0.000001 0.000008 -10.004992 -632.079421 -166.785010 -588.304848 -0.000007 0.000007 -13.174895 2.189851 -37.539707 318.726297 2.240598 0.386801 -2.614103 138.229601 -34.849152 106.858733 0.000001 0.000001 -18.592892 -115.926096 37.436216 133.917470 -0.000002 0.000001 -18.765797 10.300452 34.098299 2.382366 -2.014896 -0.220896 -2.615900 -115.175486 -16.572042 -93.217807 0.000000 0.000003 -18.633884 173.160568 27.235664 -178.231259 -0.000006 -0.000006 -18.285084 -17.236867 33.001784 -205.129295
